# xmcd CD database file
#
# Track frame offsets:
#	150
#	26553
#	48561
#	68352
#	100668
#	118868
#	144352
#	178507
#	201861
#	223584
#	243444
#
# Disc length: 3455 seconds
#
# Revision: 0
# Processed by: cddbd v1.5.1PL2 Copyright (c) Steve Scherf et al.
# Submitted via: CDex 1.51
#
DISCID=970d7d0b
DTITLE=Dan Barta a Illustratosphere - Retropicture
DYEAR=2005
DGENRE=Jazz
TTITLE0=Za poryvu
TTITLE1=Innerview
TTITLE2=Mestem
TTITLE3=Stmivani
TTITLE4=On My Head
TTITLE5=Foot In Another Land
TTITLE6=Planetam
TTITLE7=Etnika et Nikola
TTITLE8=Na i v ni
TTITLE9=Kontrabasen
TTITLE10=Kontrabasnik
EXTD=YEAR: 2005
EXTT0=
EXTT1=
EXTT2=
EXTT3=
EXTT4=
EXTT5=
EXTT6=
EXTT7=
EXTT8=
EXTT9=
EXTT10=
PLAYORDER=
